<svg id="top-shape" class="top-shape" xmlns="http://www.w3.org/2000/svg" width="3198.77" height="2101" viewBox="0 0 3198.77 2101">
							  <path fill="#e63c2e" d="M7182.02,1704.11c24.03,63.07,113.98,123.82,159.39,167.21,51.96,49.49,76.71,121.46,134.57,158.58,77.98,49.99,158.36,26.32,239.69,30.76,87.8,14.36,171.71,109.43,102.31,219.71-67.26,110.11-73.27,245.59,6.21,356.29,74.65,103.94,203.36,160.59,330.33,160.5,85.24-.05,179.5-32.06,260.42-42.32s199.06-7.38,333.51,67.13c120.28,66.63,195.71,162.07,296.7,244.04,82.92,68.59,198.77,75.21,297.06,31.08C9440.4,3053,9510.56,2977.44,9517,2817c18.24-335.16,217.21-505.86,476-431,314.2,90.9,440.9-310.43,346-460-221.2-348.59-696.16-229.54-409-905-776.13-.92-1322-1-1322-1l-853,4s-107.93,78.61-80,360c22.75,229.21,134.12,323.32,41,415-34.45,34.34-87.69,70.57-160.9,80.33-41.85,5.3-89.95-12.89-124.08-40.73-79.57-64.94-59.4-131.24-90.58-221.51C7287.83,1464.76,7127.96,1561.98,7182.02,1704.11Z" transform="translate(-7170.03 -1024)"></path>
							</svg>