<?xml version="1.0" encoding="utf-8"?>
<!-- Generator: Adobe Illustrator 21.0.2, SVG Export Plug-In . SVG Version: 6.00 Build 0)  -->
<svg version="1.1" id="Layer_1" xmlns="http://www.w3.org/2000/svg" xmlns:xlink="http://www.w3.org/1999/xlink" x="0px" y="0px"
	 viewBox="0 0 2211.6 881.1" style="enable-background:new 0 0 2211.6 881.1;" xml:space="preserve">
<style type="text/css">
	.st0{fill:#E63D2E;}
	.st1{fill:#D43929;}
</style>
<g>
	<path class="st0" d="M2211.4,771.5c0-114.3,0-657.7,0-772C2211.4-1.8,1.6-5.2,0-5.2c0,117.3,0,663.8,0,781.1c7.8,0,15.6,0,23.3,0
		c1.5-0.2,2.9-0.4,4.4-0.5c17.1-0.5,34.3-0.7,51.3-1.7c20.3-1.2,40.7-2.5,60.9-4.9c34.6-4.1,69-9.2,103.5-13.7
		c22.9-3,45.8-6.1,68.7-8.3c26.5-2.5,53.2-4.2,79.8-5.7c51.7-2.9,103.4-2.1,155.1-1.6c24.2,0.2,48.3,0.8,72.5,1.8
		c25.5,1,51,2.5,76.4,4.2c19.9,1.4,39.8,3.1,59.6,5.2c19.8,2.1,39.6,4.8,59.3,7.3c19.7,2.4,39.3,5,59.1,7.1
		c22.8,2.4,45.5,4.5,68.4,6.1c18.3,1.3,36.7,2.1,55.1,2.7c23.8,0.8,47.7,1.1,71.5,1.6c1.3,0,2.7,0.3,4,0.5c10.7,0,21.4,0,32.2,0
		c0.4,0,0.8,0,1.3,0c7.4,0,14.7,0,22.1,0c1.5-0.2,2.9-0.4,4.4-0.5c17.1-0.5,34.3-0.7,51.3-1.7c20.3-1.2,40.7-2.5,60.9-4.9
		c34.6-4.1,69-9.2,103.5-13.7c22.9-3,45.8-6.1,68.7-8.3c26.5-2.5,53.2-4.2,79.8-5.7c51.7-2.9,103.4-2.1,155.1-1.6
		c24.2,0.2,48.3,0.8,72.5,1.8c15.2,0.6,30.3,1.4,45.5,2.3c8.6,3.6,17.3,13,17.3,36.7c0,14.1-1.3,26.9-3.8,42.5c0,0-1.4,9.5-0.9,38.4
		c0,1.2,0.2,6.1,2.8,11.3c1.2,2.4,3.9,7.6,8.5,8.5c5.4,1,10.4-4.7,11.3-5.7c8.2-9.3,4.7-22.9,0.9-55.7c-1-8.5-2-17.5-2.8-29.2
		c-2.1-29.8-2.8-32.5,6.5-43.2c0.2-0.2,0.5-0.6,0.8-1c5.6,0.4,11.2,0.9,16.8,1.3c1,1.9,1.7,3.8,1.9,5c1.2,7.3-2.1,17.8-1.2,25.4
		c0.2,2.2,1.1,9.8,6.6,12.3c4.1,1.8,9.4,0.2,12.3-2.8c3.5-3.8,3.1-9.6,2.8-13.2c-0.2-3.2-3.8-16.5-3.1-24.9
		c4.6,0.4,9.2,0.9,13.7,1.4c19.8,2.1,39.6,4.8,59.3,7.3c19.7,2.4,39.3,5,59.1,7.1c22.8,2.4,45.5,4.5,68.4,6.1
		c18.3,1.3,36.7,2.1,55.1,2.7c23.8,0.8,47.7,1.1,71.5,1.6c1.3,0,2.7,0.3,4,0.5c11.1,0,22.3,0,33.4,0
		C2211.5,774.4,2211.4,773,2211.4,771.5z"/>
	<g>
		<path class="st1" d="M1184.6,693c10.4,16.9,36.7,34.1,54,23.8c7.5-4.4,4.3-11.5,14.3-11.6c11.7-0.1,18.4-4.9,22.3-17.7
			c6.7-22.2-9.3-43.3-29.5-50.4c-14.8-5.3-33.1-4.1-46.6,4.1C1181.5,651.9,1173.3,674.6,1184.6,693"/>
		<path class="st1" d="M1346.3,670.2c2.1,3.6,11,11.6,23.3,9c7-1.5,12.1-7.3,14.3-14.2c8.1-25.1-17.5-31.1-25.8-28.4
			c-7.1,2.3-12,8-14,15.2C1343.2,655.4,1341.6,662,1346.3,670.2"/>
		<path class="st1" d="M778.3,158.6c5.3,12.3,19.3,22,30.8,23.8c14.6,2.2,30.3-6.6,36.6-21.4c4.9-11.3-2.5-18,0.5-23.6
			c2.4-4.4,12.7-5.5,12.7-17.3c0-12.9-11.1-24.5-24.3-24.3c-11.1,0.2-31.9,1.4-51.1,16.8C771,122.6,771.8,143,778.3,158.6"/>
		<path class="st1" d="M1474.1,325.9c-7.6,10.1-12.2,25.8-12.9,39.3c0,9.4,2.1,18.2,5.9,23.4c6,8.2,16.2,11.6,22,20.8
			c2.8,4.5,6.4,16.7,7.7,21.4c3.5,11.5,13.2,17.6,23.9,20c7.8,1.5,17.4-1.3,23.2-7c14.7-14.4,14.4-32.9-3.2-57.3
			c-8.3-10-10.4-24.2-10.4-35.4V343c0.1-3-1.1-8.1-2.3-10.5c-5-10.1-12-17.2-22.9-19C1493.6,311.6,1480.9,317.4,1474.1,325.9"/>
		<path class="st1" d="M843.3,642.5c-0.6,17-4.3,32.2-17.1,42.2c-13,10.2-46.7,17.1-51.7-14.2c-3.9-24.4,18.9-20.7,31.3-27.4
			c8.7-4.7,25.4-31.5,34.4-16.4C842.3,630.4,843.4,638.8,843.3,642.5"/>
		<path class="st1" d="M599.7,587.8c19.4,13.3,57.1,12.9,78.7,16.3c24.7,3.9,46,19.6,69.9,18.8c32.2-1.1,50.5-23.8,74.7-38.7
			c28-13.3,70.8-2.6,72.7,42.7c2.5,44.9,27.6,84.9,72.3,100.8c41.9,15,90,5.7,126.3-19.4c24.4-16.9,45-44.7,66.2-63.7
			c21.1-19,55.5-41.5,108.7-46.8c47.6-4.7,88.1,7.7,133.2,11.2c37.3,3.2,71.8-17.8,91.2-49.9c19.4-32.1,18.2-72.7-6.1-99.2
			c-15.8-17.7-36-32.1-50.1-61.3c-14.1-29.2-18.7-62.9-16.5-93.1c2.3-30.3,24.8-80.4,27.5-113s-19.4-74.6-57.5-92
			c-33.5-15.4-84.1-3.4-89.5-2.7c-18.1,2.5-36.5-2.7-49.7-15.9c-6.8-6.8-43-51.5-60.4-62.7c-65.1-41.5-172.1-13.1-219,59.8
			c-4.7,7.3-26.7,63.2-60.5,92.7c-28.8,25.1-102.8,42-126.9,77c-12.6,18.3-49,74.3-32.7,157.8c2.1,10.9,23.4,58.2,14.8,102.9
			c-3.1,16.7-6.9,37.4-25.9,54.6c-10.9,9.8-28.3,14.1-43.6,12.9c-35.6-2.9-43-25.8-69.7-45.5C582.7,498.2,556.2,557.7,599.7,587.8"
			/>
	</g>
</g>
</svg>
