<?xml version="1.0" encoding="utf-8"?>
<!-- Generator: Adobe Illustrator 21.0.2, SVG Export Plug-In . SVG Version: 6.00 Build 0)  -->
<svg version="1.1" id="Layer_1" xmlns="http://www.w3.org/2000/svg" xmlns:xlink="http://www.w3.org/1999/xlink" x="0px" y="0px"
	 viewBox="0 0 2211.6 881.1" style="enable-background:new 0 0 2211.6 881.1;" xml:space="preserve">
<style type="text/css">
	.st0{fill:#E63D2E;}
	.st1{fill:#D43929;}
</style>
<g>
	<path class="st0" d="M2212.5,771.8c0-114.4,0-658.3,0-772.7C2212.5-2.2,0.4-5.6-1.2-5.6c0,117.4,0,664.4,0,781.8
		c7.8,0,15.6,0,23.3,0c1.5-0.2,2.9-0.4,4.4-0.5c17.1-0.5,34.3-0.7,51.4-1.7c20.3-1.2,40.7-2.5,61-4.9c34.6-4.1,69.1-9.2,103.6-13.7
		c22.9-3,45.8-6.1,68.8-8.3c26.5-2.5,53.3-4.2,79.9-5.7c51.8-2.9,103.5-2.1,155.3-1.6c24.2,0.2,48.3,0.8,72.6,1.8
		c25.5,1,51.1,2.5,76.5,4.2c19.9,1.4,39.8,3.1,59.7,5.2c19.8,2.1,39.6,4.8,59.4,7.3c19.7,2.4,39.3,5,59.2,7.1
		c22.8,2.4,45.5,4.5,68.5,6.1c18.3,1.3,36.7,2.1,55.2,2.7c23.8,0.8,47.7,1.1,71.6,1.6c1.3,0,2.7,0.3,4,0.5c10.7,0,21.4,0,32.2,0
		c0.4,0,0.8,0,1.3,0c7.4,0,14.7,0,22.1,0c1.5-0.2,2.9-0.4,4.4-0.5c17.1-0.5,34.3-0.7,51.4-1.7c20.3-1.2,40.7-2.5,61-4.9
		c34.6-4.1,69.1-9.2,103.6-13.7c22.9-3,45.8-6.1,68.8-8.3c26.5-2.5,53.3-4.2,79.9-5.7c51.8-2.9,103.5-2.1,155.3-1.6
		c24.2,0.2,48.3,0.8,72.6,1.8c15.2,0.6,30.3,1.4,45.5,2.3c8.6,3.6,17.3,13,17.3,36.7c0,14.1-1.3,26.9-3.8,42.5c0,0-1.4,9.5-0.9,38.4
		c0,1.2,0.2,6.1,2.8,11.3c1.2,2.4,3.9,7.6,8.5,8.5c5.4,1,10.4-4.7,11.3-5.7c8.2-9.3,4.7-22.9,0.9-55.8c-1-8.5-2-17.5-2.8-29.2
		c-2.1-29.8-2.8-32.5,6.5-43.2c0.2-0.2,0.5-0.6,0.8-1c5.6,0.4,11.2,0.9,16.8,1.3c1,1.9,1.7,3.8,1.9,5c1.2,7.3-2.1,17.8-1.2,25.4
		c0.2,2.2,1.1,9.8,6.6,12.3c4.1,1.8,9.4,0.2,12.3-2.8c3.5-3.8,3.1-9.6,2.8-13.2c-0.2-3.2-3.8-16.5-3.1-24.9
		c4.6,0.4,9.2,0.9,13.7,1.4c19.8,2.1,39.6,4.8,59.4,7.3c19.7,2.4,39.3,5,59.2,7.1c22.8,2.4,45.5,4.5,68.5,6.1
		c18.3,1.3,36.7,2.1,55.2,2.7c23.8,0.8,47.7,1.1,71.6,1.6c1.3,0,2.7,0.3,4,0.5c11.1,0,22.3,0,33.4,0
		C2212.6,774.7,2212.5,773.3,2212.5,771.8z"/>
	<g>
		<path class="st1" d="M1184.6,693.2c10.4,16.9,36.7,34.1,54.1,23.8c7.5-4.4,4.3-11.5,14.3-11.6c11.7-0.1,18.4-4.9,22.3-17.7
			c6.7-22.2-9.3-43.3-29.5-50.4c-14.8-5.3-33.1-4.1-46.6,4.1C1181.5,652.1,1173.3,674.8,1184.6,693.2"/>
		<path class="st1" d="M1346.5,670.4c2.1,3.6,11,11.6,23.3,9c7-1.5,12.1-7.3,14.3-14.2c8.1-25.1-17.5-31.1-25.8-28.4
			c-7.1,2.3-12,8-14,15.2C1343.4,655.6,1341.8,662.2,1346.5,670.4"/>
		<path class="st1" d="M777.9,158.3c5.3,12.3,19.3,22,30.8,23.8c14.6,2.2,30.3-6.6,36.6-21.4c4.9-11.3-2.5-18,0.5-23.6
			c2.4-4.4,12.7-5.5,12.7-17.3c0-12.9-11.1-24.5-24.3-24.3c-11.1,0.2-31.9,1.4-51.2,16.8C770.6,122.3,771.4,142.7,777.9,158.3"/>
		<path class="st1" d="M1474.4,325.8c-7.6,10.1-12.2,25.8-12.9,39.3c0,9.4,2.1,18.2,5.9,23.4c6,8.2,16.2,11.6,22,20.8
			c2.8,4.5,6.4,16.7,7.7,21.4c3.5,11.5,13.2,17.6,23.9,20c7.8,1.5,17.4-1.3,23.2-7c14.7-14.4,14.4-32.9-3.2-57.4
			c-8.3-10-10.4-24.2-10.4-35.4v-8.1c0.1-3-1.1-8.1-2.3-10.5c-5-10.1-12-17.2-22.9-19C1493.9,311.5,1481.2,317.3,1474.4,325.8"/>
		<path class="st1" d="M843,642.7c-0.6,17-4.3,32.2-17.1,42.2c-13,10.2-46.7,17.1-51.8-14.2c-3.9-24.4,18.9-20.7,31.3-27.4
			c8.7-4.7,25.4-31.5,34.4-16.4C842,630.6,843.1,639,843,642.7"/>
		<path class="st1" d="M599.1,587.9c19.4,13.3,57.2,12.9,78.8,16.3c24.7,3.9,46,19.6,70,18.8c32.2-1.1,50.6-23.8,74.8-38.7
			c28-13.3,70.9-2.6,72.8,42.7c2.5,44.9,27.6,85,72.4,100.9c41.9,15,90.1,5.7,126.4-19.4c24.4-16.9,45-44.7,66.3-63.8
			c21.1-19,55.6-41.5,108.8-46.8c47.6-4.7,88.2,7.7,133.3,11.2c37.3,3.2,71.9-17.8,91.3-49.9c19.4-32.1,18.2-72.8-6.1-99.3
			c-15.8-17.7-36-32.1-50.2-61.4c-14.1-29.2-18.7-63-16.5-93.2c2.3-30.3,24.8-80.5,27.5-113.1s-19.4-74.7-57.6-92.1
			c-33.5-15.4-84.2-3.4-89.6-2.7c-18.1,2.5-36.5-2.7-49.8-15.9c-6.8-6.8-43-51.5-60.5-62.8c-65.1-41.4-172.2-13-219.1,60
			c-4.7,7.3-26.7,63.3-60.6,92.8c-28.8,25.1-102.9,42-127,77.1c-12.6,18.3-49.1,74.4-32.7,157.9c2.1,10.9,23.4,58.3,14.8,103
			c-3.1,16.7-6.9,37.4-25.9,54.7c-10.9,9.8-28.3,14.1-43.6,12.9c-35.6-2.9-43-25.8-69.8-45.5C582.1,498.3,555.6,557.8,599.1,587.9"
			/>
	</g>
</g>
</svg>
