<?xml version="1.0" encoding="utf-8"?>
<!-- Generator: Adobe Illustrator 21.0.2, SVG Export Plug-In . SVG Version: 6.00 Build 0)  -->
<svg version="1.1" id="Layer_1" xmlns="http://www.w3.org/2000/svg" xmlns:xlink="http://www.w3.org/1999/xlink" x="0px" y="0px"
	 viewBox="0 0 2000 178.6" style="enable-background:new 0 0 2000 178.6;" xml:space="preserve">
<style type="text/css">
	.st0{fill:#FFFFFF;}
</style>
<path class="st0" d="M1799.3,65.8c60.7,7.4,126.9,12.7,204.2,12.7V180H-3.6V79.5c254.7,0,271.1-78,472.1-78
	c279.2,0,313.5,70,500.4,70s190.9-54,413.9-54c137.3,0,241.2,23.1,362.2,40.9c5.6,2.5,6.9,6,8.9,9.7c4.4,8.2,2.9,16.1,3.2,23.2
	c0.5,12.1-0.9,22.7-2.6,35.7c0,0-1,7.9-0.6,32.6c0,1,0.1,5.2,1.9,9.9c0.8,2.2,2.7,6.9,5.8,8.1c3.7,1.4,7.1-2.9,7.7-3.7
	c5.6-7,3.2-18.9,0.6-47.2c-0.7-7.4-1.4-15.1-1.9-25.1c-1.4-25.6,1.2-27.6,7.5-35.7c0.6-0.8,1.6-2.1,2.9-2.8c1.4,0.2,2.8,0.4,4.2,0.5
	c1.8,1.9,2.8,5.8,3.1,8.5c0.8,6.3-1.8,7.7-1.3,14.2c0.2,1.9,0.7,8.4,4.5,11.1c2.8,2,6.4,1.2,8.3-1.2c2.4-2.9,2.1-7.8,1.9-10.9
	C1798.9,81.7,1794.8,67.6,1799.3,65.8z"/>
</svg>
