<?xml version="1.0" encoding="utf-8"?>
<!-- Generator: Adobe Illustrator 21.0.2, SVG Export Plug-In . SVG Version: 6.00 Build 0)  -->
<svg version="1.1" id="Layer_1" xmlns="http://www.w3.org/2000/svg" xmlns:xlink="http://www.w3.org/1999/xlink" x="0px" y="0px"
	 viewBox="0 0 1000 404" style="enable-background:new 0 0 1000 404;" xml:space="preserve">
<style type="text/css">
	.st0{fill:#F2F2F3;}
</style>
<path class="st0" d="M0,0v19.8V20v364v20h1000v-20V20v-0.2V0H0z M610.7,65.6c0.3-8.4,2.2-16,8.5-20.9c6.4-5,23.2-8.5,25.7,7
	c1.9,12.1-9.4,10.3-15.6,13.6c-4.3,2.3-12.6,15.6-17.1,8.1C611.2,71.7,610.7,67.5,610.7,65.6z M396,43.3c1.9-6.3,5.2-8.8,11.1-8.8
	c5,0,3.4-3.5,7.1-5.7c8.6-5,21.7,3.5,26.8,11.8c5.6,9.1,1.6,20.4-7.2,25.7c-6.7,4-15.8,4.6-23.2,2C400.6,64.8,392.7,54.3,396,43.3z
	 M341.9,54.5c1.1-3.4,3.6-6.2,7.1-7c4.4-0.9,9,0.8,11.6,4.5c1.7,2.7,2.1,6,1.1,9.1c-0.9,3.5-3.5,6.4-6.9,7.5
	C350.6,69.9,337.9,66.9,341.9,54.5z M257.4,172.8c0.6-3.2,2.3-6.1,5-8.7c3.1-2.9,7.4-4.1,11.5-3.5c5.3,1.2,10.2,4.2,11.9,9.9
	c0.7,2.4,2.4,8.4,3.8,10.6c3,4.6,8,6.2,11,10.3c1.9,2.6,2.9,6.9,2.9,11.6c-0.4,6.7-2.6,14.5-6.4,19.5c-3.4,4.2-9.7,7.1-15.5,6.1
	c-5.4-0.9-8.9-4.4-11.4-9.4c-0.7-1.6-1.1-3.4-1.1-5.2v-4c0-5.6-1-12.6-5.2-17.6c-3.7-5.1-5.8-9.7-6.5-13.8L257.4,172.8L257.4,172.8z
	 M472.3,384c-12.5-0.1-24.5-3.1-34.5-9.5c-8.7-5.5-26.7-27.7-30.1-31.1c-6.5-6.4-15.7-9.3-24.7-7.9c-2.7,0.4-27.8,6.3-44.5-1.3
	c-19-8.7-29.9-29.5-28.6-45.6c1.3-16.2,12.5-41,13.7-56c1.1-15-1.2-31.7-8.2-46.1s-17.1-21.6-24.9-30.4c-12-13.1-12.7-33.2-3-49.1
	s26.8-26.3,45.3-24.7c22.4,1.7,42.6,7.9,66.2,5.5c26.5-2.6,43.5-13.8,54.1-23.2c10.6-9.4,20.8-23.2,32.9-31.6
	c10.8-7.5,23.8-12.1,37-13h9.1c5.6,0.4,11.2,1.5,16.6,3.4c22.2,7.9,34.7,27.7,35.9,50c1,22.5,22.3,27.7,36.2,21.2
	c12-7.4,21.1-18.6,37.1-19.1c11.9-0.4,22.5,7.4,34.8,9.3c10.7,1.7,29.5,1.5,39.1,8.1c6.6,4.5,9.9,10.3,10.8,15.8v5.9
	c-1.7,9.7-11.6,15.8-24.8,6.2c-13.3-9.8-17-21.1-34.7-22.6c-7.6-0.6-16.2,1.5-21.7,6.4c-9.5,8.6-11.3,18.8-12.9,27.1
	c-4.2,22.2,6.3,45.6,7.4,51c8.1,41.4-10,69.1-16.3,78.2c-12,17.3-48.8,25.7-63.1,38.2c-16.8,14.6-27.8,42.4-30.1,46
	c-15.9,24.7-45.9,39.1-73.5,39.1h-0.6V384z M609.6,304.2c3.1-7.4,10.9-11.7,18.2-10.6c5.8,0.9,12.7,5.7,15.3,11.8
	c3.2,7.7,3.6,17.9-2.6,22.8c-9.6,7.6-19.9,8.2-25.4,8.3c-6.5,0.1-12.1-5.6-12.1-12c0-5.9,5.2-6.4,6.3-8.6
	C610.8,313.2,607.1,309.8,609.6,304.2z"/>
</svg>
