<?xml version="1.0" encoding="utf-8"?>
<!-- Generator: Adobe Illustrator 21.0.2, SVG Export Plug-In . SVG Version: 6.00 Build 0)  -->
<svg version="1.1" id="Layer_1" xmlns="http://www.w3.org/2000/svg" xmlns:xlink="http://www.w3.org/1999/xlink" x="0px" y="0px"
	 viewBox="0 0 1000 404" style="enable-background:new 0 0 1000 404;" xml:space="preserve">
<style type="text/css">
	.st0{fill:#F2F2F3;}
</style>
<path class="st0" d="M1000,404v-19.8V384V20V0H0v20v364v0.2V404H1000z M389.2,338.4c-0.3,8.4-2.1,15.9-8.5,20.9s-23.2,8.4-25.7-7
	c-1.9-12.1,9.4-10.3,15.6-13.6c4.3-2.3,12.6-15.6,17.1-8.1C388.8,332.3,389.3,336.5,389.2,338.4z M603.9,360.7
	c-1.9,6.3-5.3,8.8-11.1,8.8c-5,0-3.4,3.5-7.1,5.7c-8.5,5-21.6-3.4-26.8-11.8c-5.6-9.1-1.5-20.4,7.2-25.7c6.8-4.1,15.8-4.6,23.2-2
	C599.4,339.2,607.3,349.7,603.9,360.7z M658.1,349.6c-1.1,3.4-3.6,6.3-7.1,7c-4.4,0.9-9-0.8-11.6-4.5c-1.7-2.7-2.1-6.1-1.1-9.1
	c0.8-3.5,3.4-6.3,6.9-7.5C649.4,334.1,662.1,337.1,658.1,349.6z M742.6,231.1c-0.7,3.2-2.3,6.1-5,8.7c-3.1,2.9-7.3,4.2-11.5,3.5
	c-5.3-1.2-10.1-4.2-11.9-9.9c-0.6-2.3-2.4-8.4-3.8-10.6c-3-4.6-8-6.2-11-10.3c-1.9-2.6-2.9-6.9-2.9-11.6c0.4-6.7,2.6-14.5,6.4-19.5
	c3.4-4.2,9.7-7.1,15.5-6.1c5.4,0.9,8.9,4.4,11.4,9.4c0.7,1.6,1.1,3.4,1.1,5.2v4c0,5.6,1.1,12.7,5.2,17.6c3.6,5.1,5.8,9.7,6.5,13.8
	V231.1z M527,20.2h0.7c12.5,0.1,24.5,3.1,34.5,9.5c8.7,5.6,26.7,27.7,30.1,31.1c6.5,6.4,15.7,9.3,24.7,7.9
	c2.7-0.4,27.8-6.3,44.5,1.3c18.9,8.7,29.9,29.4,28.6,45.6c-1.4,16.2-12.6,41-13.7,56c-1.1,14.9,1.2,31.6,8.2,46.1
	s17.1,21.6,24.9,30.4c12,13.1,12.7,33.2,3,49.1s-26.8,26.3-45.3,24.7c-22.4-1.7-42.5-7.8-66.2-5.5c-26.5,2.6-43.6,13.8-54.1,23.2
	s-20.8,23.2-32.9,31.6c-10.9,7.5-23.9,12.1-37.1,13h-9.1c-5.6-0.4-11.2-1.5-16.6-3.4c-22.2-8-34.6-27.8-35.9-50
	c-1-22.5-22.3-27.8-36.2-21.2c-12,7.3-21.1,18.5-37.1,19.1c-11.9,0.4-22.5-7.4-34.8-9.3c-10.7-1.7-29.5-1.5-39.1-8.1
	c-6.6-4.5-9.9-10.3-10.8-15.8v-5.9c1.7-9.7,11.6-15.8,24.8-6.2c13.3,9.8,17,21.2,34.7,22.6c7.6,0.6,16.3-1.5,21.7-6.4
	c9.5-8.6,11.4-18.8,12.9-27.1c4.2-22.2-6.4-45.6-7.4-51c-8-41.4,10-69.1,16.3-78.2c12-17.4,48.8-25.8,63.1-38.2
	c16.8-14.7,27.8-42.4,30.1-46c15.9-24.7,45.8-39,73.5-39.1V20.2z M390.4,99.8c-3.2,7.3-10.9,11.7-18.2,10.6
	c-5.7-0.9-12.6-5.7-15.3-11.8c-3.2-7.8-3.6-17.9,2.6-22.8c9.6-7.6,19.9-8.2,25.4-8.3c6.6-0.2,12.1,5.6,12.1,12
	c0,5.9-5.1,6.4-6.3,8.6C389.2,90.8,392.9,94.2,390.4,99.8z"/>
</svg>
